<svg width="512" height="512" viewBox="0 0 512 512" xmlns="http://www.w3.org/2000/svg" role="img" aria-label="AWS platform on top of Databricks">
  <defs>
    <linearGradient id="bg" x1="0" y1="0" x2="0" y2="1">
      <stop offset="0" stop-color="#20303F"/>
      <stop offset="1" stop-color="#0E1620"/>
    </linearGradient>
    <linearGradient id="platform" x1="0" y1="0" x2="1" y2="1">
      <stop offset="0" stop-color="#FF9900"/>
      <stop offset="1" stop-color="#E8730C"/>
    </linearGradient>
    <linearGradient id="platformTop" x1="0" y1="0" x2="1" y2="0">
      <stop offset="0" stop-color="#FFB84D"/>
      <stop offset="1" stop-color="#FF9900"/>
    </linearGradient>
    <linearGradient id="brick" x1="0" y1="0" x2="1" y2="1">
      <stop offset="0" stop-color="#FF6A4D"/>
      <stop offset="1" stop-color="#E32213"/>
    </linearGradient>
    <filter id="soft" x="-30%" y="-30%" width="160%" height="160%">
      <feDropShadow dx="0" dy="8" stdDeviation="12" flood-color="#000000" flood-opacity="0.4"/>
    </filter>
  </defs>

  <!-- Background tile -->
  <rect x="0" y="0" width="512" height="512" rx="104" fill="url(#bg)"/>

  <!-- ===== DATABRICKS STACKED MARK AS THE BASE (bottom) ===== -->
  <g filter="url(#soft)" transform="translate(256,300)">
    <!-- top diamond -->
    <path d="M0 0 L74 34 L0 68 L-74 34 Z" fill="url(#brick)"/>
    <!-- middle layer -->
    <path d="M-74 52 L0 86 L74 52 L74 72 L0 106 L-74 72 Z" fill="url(#brick)" opacity="0.9"/>
    <!-- bottom layer -->
    <path d="M-74 90 L0 124 L74 90 L74 110 L0 144 L-74 110 Z" fill="url(#brick)" opacity="0.8"/>
  </g>

  <!-- Databricks label under the base mark -->
  <text x="256" y="484" text-anchor="middle" font-family="Arial, Helvetica, sans-serif"
        font-size="30" font-weight="800" fill="#FF6A4D">Databricks</text>

  <!-- ===== AWS INFRASTRUCTURE PLATFORM ON TOP (isometric slab) ===== -->
  <g filter="url(#soft)">
    <!-- top face -->
    <path d="M96 168 L256 112 L416 168 L256 224 Z" fill="url(#platformTop)"/>
    <!-- front-left face -->
    <path d="M96 168 L256 224 L256 264 L96 208 Z" fill="url(#platform)"/>
    <!-- front-right face -->
    <path d="M416 168 L256 224 L256 264 L416 208 Z" fill="#D96A0B"/>
  </g>
  <!-- AWS wordmark on the platform top face -->
  <text x="256" y="178" text-anchor="middle" font-family="Arial, Helvetica, sans-serif"
        font-size="34" font-weight="800" fill="#5A2E04">AWS</text>
  <!-- AWS smile arrow, anchored just under the platform -->
  <path d="M188 236 q68 24 136 0" fill="none" stroke="#FF9900" stroke-width="9" stroke-linecap="round"/>
  <path d="M312 232 l20 4 -12 17 z" fill="#FF9900"/>
</svg>
